<svg xmlns="http://www.w3.org/2000/svg" width="90" height="96" viewBox="0 0 30 32" xml:space="preserve"><circle cx="15" cy="15" r="12" style="fill:#ffd633;stroke:#ffd633;stroke-width:3;"/><polygon fill="#ffd633" points="12,27 18,27 15,32 12,27"/><g transform="translate(5, 1) scale(.4)"><path d="M24.564 26.45L12.272 15.283c.068-.006.133-.021.202-.021h24.404L24.564 26.45zm.008 3.85L39.29 16.713c.032.158.05.322.05.491v16.03a2.466 2.466 0 0 1-2.467 2.467h-24.4a2.466 2.466 0 0 1-2.466-2.467v-16.03c0-.077.016-.147.021-.221L24.572 30.3z" style="fill:#333333"/><path d="undefined" style="fill:#333333"/></g> </svg>