<svg xmlns="http://www.w3.org/2000/svg" width="90" height="96" viewBox="0 0 30 32" xml:space="preserve"><circle cx="15" cy="15" r="12" style="fill:#ffd633;stroke:#ffd633;stroke-width:3;"/><polygon fill="#ffd633" points="12,27 18,27 15,32 12,27"/><g transform="translate(5, 1) scale(.4)"><path d="M19.84 32.662h3.983L19.8 36.734h-3.983l4.023-4.072zm-5.374 0h3.984l-4.023 4.072h-3.984l4.023-4.072zm10.282 0h3.984l4.022 4.072h-3.983l-4.023-4.072zm5.373 0h3.984l4.023 4.072h-3.984l-4.023-4.072zm1.542-11.297c.69-1.882 1.17-4.747 1.27-6.753L40 16.371c-.565 8.296-6.787 15.562-16.017 15.559-10.442-.004-14.478-9.082-13.935-15.962l3.067-.975c-.5 3.914.713 6.738 1.549 8.032-.995-5.538 3.185-10.021 8.418-10.025 4.706-.003 8.6 3.434 8.581 8.365zm-14.223.174a5.656 5.656 0 1 0 11.312 0 5.656 5.656 0 0 0-11.312 0z" style="fill:#333333"/><path d="undefined" style="fill:#333333"/></g><text x="15" y="24" style="font-size:5px;font-family:arial;fill:#333333;" text-anchor="middle">4,5 km</text></svg>